<mxfile host="app.diagrams.net" agent="Mozilla/5.0 (Windows NT 6.1; Win64; x64) AppleWebKit/537.36 (KHTML, like Gecko) Chrome/109.0.0.0 Safari/537.36" version="28.0.7">
  <diagram name="Page-1" id="5WgXmzzK-jX_fJYbkEYO">
    <mxGraphModel dx="1094" dy="808" grid="1" gridSize="10" guides="1" tooltips="1" connect="1" arrows="1" fold="1" page="1" pageScale="1" pageWidth="850" pageHeight="1100" math="1" shadow="0">
      <root>
        <mxCell id="0" />
        <mxCell id="1" parent="0" />
        <mxCell id="_UMkpMhVSqITo2PRBiwc-2" value="" style="endArrow=block;html=1;rounded=0;strokeWidth=4;endFill=1;" edge="1" parent="1">
          <mxGeometry width="50" height="50" relative="1" as="geometry">
            <mxPoint x="200" y="480" as="sourcePoint" />
            <mxPoint x="600" y="480" as="targetPoint" />
          </mxGeometry>
        </mxCell>
        <mxCell id="_UMkpMhVSqITo2PRBiwc-3" value="" style="endArrow=block;html=1;rounded=0;strokeWidth=4;endFill=1;" edge="1" parent="1">
          <mxGeometry width="50" height="50" relative="1" as="geometry">
            <mxPoint x="400" y="480" as="sourcePoint" />
            <mxPoint x="400" y="320" as="targetPoint" />
          </mxGeometry>
        </mxCell>
        <mxCell id="_UMkpMhVSqITo2PRBiwc-4" value="" style="endArrow=blockThin;html=1;rounded=0;endFill=1;strokeWidth=4;fillColor=#f8cecc;strokeColor=#b85450;" edge="1" parent="1">
          <mxGeometry width="50" height="50" relative="1" as="geometry">
            <mxPoint x="320" y="480" as="sourcePoint" />
            <mxPoint x="320" y="400" as="targetPoint" />
          </mxGeometry>
        </mxCell>
        <mxCell id="_UMkpMhVSqITo2PRBiwc-5" value="" style="endArrow=blockThin;html=1;rounded=0;endFill=1;strokeWidth=4;fillColor=#d5e8d4;strokeColor=#82b366;" edge="1" parent="1">
          <mxGeometry width="50" height="50" relative="1" as="geometry">
            <mxPoint x="480" y="480" as="sourcePoint" />
            <mxPoint x="480" y="400" as="targetPoint" />
          </mxGeometry>
        </mxCell>
        <mxCell id="_UMkpMhVSqITo2PRBiwc-6" value="&lt;font style=&quot;font-size: 20px;&quot;&gt;$$-f_\text{in}$$&lt;/font&gt;" style="text;html=1;align=center;verticalAlign=middle;whiteSpace=wrap;rounded=0;" vertex="1" parent="1">
          <mxGeometry x="280" y="490" width="60" height="30" as="geometry" />
        </mxCell>
        <mxCell id="_UMkpMhVSqITo2PRBiwc-7" value="&lt;font style=&quot;font-size: 20px;&quot;&gt;$$f_\text{in}$$&lt;/font&gt;" style="text;html=1;align=center;verticalAlign=middle;whiteSpace=wrap;rounded=0;" vertex="1" parent="1">
          <mxGeometry x="450" y="490" width="60" height="30" as="geometry" />
        </mxCell>
        <mxCell id="_UMkpMhVSqITo2PRBiwc-8" value="&lt;font style=&quot;font-size: 20px; color: rgb(234, 107, 102);&quot;&gt;$$A^-$$&lt;/font&gt;" style="text;html=1;align=center;verticalAlign=middle;whiteSpace=wrap;rounded=0;" vertex="1" parent="1">
          <mxGeometry x="290" y="370" width="60" height="30" as="geometry" />
        </mxCell>
        <mxCell id="_UMkpMhVSqITo2PRBiwc-9" value="&lt;font style=&quot;font-size: 20px; color: rgb(103, 171, 159);&quot;&gt;$$A^+$$&lt;/font&gt;" style="text;html=1;align=center;verticalAlign=middle;whiteSpace=wrap;rounded=0;" vertex="1" parent="1">
          <mxGeometry x="470" y="370" width="60" height="30" as="geometry" />
        </mxCell>
        <mxCell id="_UMkpMhVSqITo2PRBiwc-10" value="&lt;font style=&quot;font-size: 20px;&quot;&gt;$$V_\text{in}(f)$$&lt;/font&gt;" style="text;html=1;align=center;verticalAlign=middle;whiteSpace=wrap;rounded=0;" vertex="1" parent="1">
          <mxGeometry x="420" y="320" width="60" height="30" as="geometry" />
        </mxCell>
        <mxCell id="_UMkpMhVSqITo2PRBiwc-11" value="" style="endArrow=block;html=1;rounded=0;strokeWidth=4;endFill=1;" edge="1" parent="1">
          <mxGeometry width="50" height="50" relative="1" as="geometry">
            <mxPoint x="200" y="720" as="sourcePoint" />
            <mxPoint x="600" y="720" as="targetPoint" />
          </mxGeometry>
        </mxCell>
        <mxCell id="_UMkpMhVSqITo2PRBiwc-12" value="" style="endArrow=block;html=1;rounded=0;strokeWidth=4;endFill=1;" edge="1" parent="1">
          <mxGeometry width="50" height="50" relative="1" as="geometry">
            <mxPoint x="400" y="720" as="sourcePoint" />
            <mxPoint x="400" y="560" as="targetPoint" />
          </mxGeometry>
        </mxCell>
        <mxCell id="_UMkpMhVSqITo2PRBiwc-13" value="" style="endArrow=blockThin;html=1;rounded=0;endFill=1;strokeWidth=4;fillColor=#f8cecc;strokeColor=#b85450;" edge="1" parent="1">
          <mxGeometry width="50" height="50" relative="1" as="geometry">
            <mxPoint x="240" y="720" as="sourcePoint" />
            <mxPoint x="240" y="640" as="targetPoint" />
          </mxGeometry>
        </mxCell>
        <mxCell id="_UMkpMhVSqITo2PRBiwc-14" value="" style="endArrow=blockThin;html=1;rounded=0;endFill=1;strokeWidth=4;fillColor=#d5e8d4;strokeColor=#82b366;" edge="1" parent="1">
          <mxGeometry width="50" height="50" relative="1" as="geometry">
            <mxPoint x="560" y="720" as="sourcePoint" />
            <mxPoint x="560" y="640" as="targetPoint" />
          </mxGeometry>
        </mxCell>
        <mxCell id="_UMkpMhVSqITo2PRBiwc-15" value="&lt;font style=&quot;font-size: 20px;&quot;&gt;$$-2f_\text{in}$$&lt;/font&gt;" style="text;html=1;align=center;verticalAlign=middle;whiteSpace=wrap;rounded=0;" vertex="1" parent="1">
          <mxGeometry x="200" y="730" width="60" height="30" as="geometry" />
        </mxCell>
        <mxCell id="_UMkpMhVSqITo2PRBiwc-16" value="&lt;font style=&quot;font-size: 20px;&quot;&gt;$$2f_\text{in}$$&lt;/font&gt;" style="text;html=1;align=center;verticalAlign=middle;whiteSpace=wrap;rounded=0;" vertex="1" parent="1">
          <mxGeometry x="520" y="730" width="60" height="30" as="geometry" />
        </mxCell>
        <mxCell id="_UMkpMhVSqITo2PRBiwc-17" value="&lt;font style=&quot;font-size: 20px; color: rgb(234, 107, 102);&quot;&gt;$$B^-$$&lt;/font&gt;" style="text;html=1;align=center;verticalAlign=middle;whiteSpace=wrap;rounded=0;" vertex="1" parent="1">
          <mxGeometry x="210" y="610" width="60" height="30" as="geometry" />
        </mxCell>
        <mxCell id="_UMkpMhVSqITo2PRBiwc-18" value="&lt;font style=&quot;font-size: 20px; color: rgb(103, 171, 159);&quot;&gt;$$B^+$$&lt;/font&gt;" style="text;html=1;align=center;verticalAlign=middle;whiteSpace=wrap;rounded=0;" vertex="1" parent="1">
          <mxGeometry x="550" y="610" width="60" height="30" as="geometry" />
        </mxCell>
        <mxCell id="_UMkpMhVSqITo2PRBiwc-19" value="&lt;font style=&quot;font-size: 20px;&quot;&gt;$$G_\text{dist}(f)$$&lt;/font&gt;" style="text;html=1;align=center;verticalAlign=middle;whiteSpace=wrap;rounded=0;" vertex="1" parent="1">
          <mxGeometry x="427" y="560" width="60" height="30" as="geometry" />
        </mxCell>
        <mxCell id="_UMkpMhVSqITo2PRBiwc-20" value="&lt;font style=&quot;color: rgb(255, 0, 0); font-size: 18px;&quot;&gt;$$V_\text{in}(f)*G_\text{dist}(f)$$&lt;/font&gt;" style="text;html=1;align=center;verticalAlign=middle;whiteSpace=wrap;rounded=0;" vertex="1" parent="1">
          <mxGeometry x="670" y="520" width="60" height="30" as="geometry" />
        </mxCell>
        <mxCell id="_UMkpMhVSqITo2PRBiwc-21" value="" style="endArrow=block;html=1;rounded=0;strokeWidth=7;endFill=1;fillColor=#d80073;strokeColor=#FF0000;" edge="1" parent="1">
          <mxGeometry width="50" height="50" relative="1" as="geometry">
            <mxPoint x="600" y="560" as="sourcePoint" />
            <mxPoint x="800" y="560" as="targetPoint" />
          </mxGeometry>
        </mxCell>
        <mxCell id="_UMkpMhVSqITo2PRBiwc-23" value="" style="endArrow=block;html=1;rounded=0;strokeWidth=4;endFill=1;" edge="1" parent="1">
          <mxGeometry width="50" height="50" relative="1" as="geometry">
            <mxPoint x="799" y="480" as="sourcePoint" />
            <mxPoint x="1199" y="480" as="targetPoint" />
          </mxGeometry>
        </mxCell>
        <mxCell id="_UMkpMhVSqITo2PRBiwc-24" value="" style="endArrow=block;html=1;rounded=0;strokeWidth=4;endFill=1;" edge="1" parent="1">
          <mxGeometry width="50" height="50" relative="1" as="geometry">
            <mxPoint x="999" y="480" as="sourcePoint" />
            <mxPoint x="999" y="320" as="targetPoint" />
          </mxGeometry>
        </mxCell>
        <mxCell id="_UMkpMhVSqITo2PRBiwc-25" value="" style="endArrow=blockThin;html=1;rounded=0;endFill=1;strokeWidth=4;fillColor=#f8cecc;strokeColor=#b85450;" edge="1" parent="1">
          <mxGeometry width="50" height="50" relative="1" as="geometry">
            <mxPoint x="919" y="480" as="sourcePoint" />
            <mxPoint x="919" y="400" as="targetPoint" />
          </mxGeometry>
        </mxCell>
        <mxCell id="_UMkpMhVSqITo2PRBiwc-26" value="" style="endArrow=blockThin;html=1;rounded=0;endFill=1;strokeWidth=4;fillColor=#d5e8d4;strokeColor=#82b366;" edge="1" parent="1">
          <mxGeometry width="50" height="50" relative="1" as="geometry">
            <mxPoint x="1079" y="480" as="sourcePoint" />
            <mxPoint x="1079" y="400" as="targetPoint" />
          </mxGeometry>
        </mxCell>
        <mxCell id="_UMkpMhVSqITo2PRBiwc-27" value="&lt;font style=&quot;font-size: 20px;&quot;&gt;$$-f_\text{in}$$&lt;/font&gt;" style="text;html=1;align=center;verticalAlign=middle;whiteSpace=wrap;rounded=0;" vertex="1" parent="1">
          <mxGeometry x="879" y="490" width="60" height="30" as="geometry" />
        </mxCell>
        <mxCell id="_UMkpMhVSqITo2PRBiwc-28" value="&lt;font style=&quot;font-size: 20px;&quot;&gt;$$f_\text{in}$$&lt;/font&gt;" style="text;html=1;align=center;verticalAlign=middle;whiteSpace=wrap;rounded=0;" vertex="1" parent="1">
          <mxGeometry x="1049" y="490" width="60" height="30" as="geometry" />
        </mxCell>
        <mxCell id="_UMkpMhVSqITo2PRBiwc-29" value="&lt;font style=&quot;font-size: 20px; color: rgb(234, 107, 102);&quot;&gt;$$A^-$$&lt;/font&gt;" style="text;html=1;align=center;verticalAlign=middle;whiteSpace=wrap;rounded=0;" vertex="1" parent="1">
          <mxGeometry x="889" y="370" width="60" height="30" as="geometry" />
        </mxCell>
        <mxCell id="_UMkpMhVSqITo2PRBiwc-30" value="&lt;font style=&quot;font-size: 20px; color: rgb(103, 171, 159);&quot;&gt;$$A^+$$&lt;/font&gt;" style="text;html=1;align=center;verticalAlign=middle;whiteSpace=wrap;rounded=0;" vertex="1" parent="1">
          <mxGeometry x="1069" y="370" width="60" height="30" as="geometry" />
        </mxCell>
        <mxCell id="_UMkpMhVSqITo2PRBiwc-32" value="" style="endArrow=block;html=1;rounded=0;strokeWidth=4;endFill=1;" edge="1" parent="1">
          <mxGeometry width="50" height="50" relative="1" as="geometry">
            <mxPoint x="799" y="720" as="sourcePoint" />
            <mxPoint x="1199" y="720" as="targetPoint" />
          </mxGeometry>
        </mxCell>
        <mxCell id="_UMkpMhVSqITo2PRBiwc-33" value="" style="endArrow=block;html=1;rounded=0;strokeWidth=4;endFill=1;" edge="1" parent="1">
          <mxGeometry width="50" height="50" relative="1" as="geometry">
            <mxPoint x="999" y="720" as="sourcePoint" />
            <mxPoint x="999" y="560" as="targetPoint" />
          </mxGeometry>
        </mxCell>
        <mxCell id="_UMkpMhVSqITo2PRBiwc-34" value="" style="endArrow=blockThin;html=1;rounded=0;endFill=1;strokeWidth=4;fillColor=#f8cecc;strokeColor=#b85450;" edge="1" parent="1">
          <mxGeometry width="50" height="50" relative="1" as="geometry">
            <mxPoint x="1160" y="720" as="sourcePoint" />
            <mxPoint x="1160" y="640" as="targetPoint" />
          </mxGeometry>
        </mxCell>
        <mxCell id="_UMkpMhVSqITo2PRBiwc-35" value="" style="endArrow=blockThin;html=1;rounded=0;endFill=1;strokeWidth=4;fillColor=#d5e8d4;strokeColor=#82b366;" edge="1" parent="1">
          <mxGeometry width="50" height="50" relative="1" as="geometry">
            <mxPoint x="838.41" y="720" as="sourcePoint" />
            <mxPoint x="838.41" y="640" as="targetPoint" />
          </mxGeometry>
        </mxCell>
        <mxCell id="_UMkpMhVSqITo2PRBiwc-36" value="&lt;font style=&quot;font-size: 20px;&quot;&gt;$$-2f_\text{in}$$&lt;/font&gt;" style="text;html=1;align=center;verticalAlign=middle;whiteSpace=wrap;rounded=0;" vertex="1" parent="1">
          <mxGeometry x="799" y="730" width="60" height="30" as="geometry" />
        </mxCell>
        <mxCell id="_UMkpMhVSqITo2PRBiwc-37" value="&lt;font style=&quot;font-size: 20px;&quot;&gt;$$2f_\text{in}$$&lt;/font&gt;" style="text;html=1;align=center;verticalAlign=middle;whiteSpace=wrap;rounded=0;" vertex="1" parent="1">
          <mxGeometry x="1119" y="730" width="60" height="30" as="geometry" />
        </mxCell>
        <mxCell id="_UMkpMhVSqITo2PRBiwc-38" value="&lt;font style=&quot;font-size: 20px; color: rgb(234, 107, 102);&quot;&gt;$$B^-$$&lt;/font&gt;" style="text;html=1;align=center;verticalAlign=middle;whiteSpace=wrap;rounded=0;" vertex="1" parent="1">
          <mxGeometry x="1150" y="610" width="60" height="30" as="geometry" />
        </mxCell>
        <mxCell id="_UMkpMhVSqITo2PRBiwc-39" value="&lt;font style=&quot;font-size: 20px; color: rgb(103, 171, 159);&quot;&gt;$$B^+$$&lt;/font&gt;" style="text;html=1;align=center;verticalAlign=middle;whiteSpace=wrap;rounded=0;" vertex="1" parent="1">
          <mxGeometry x="829" y="610" width="60" height="30" as="geometry" />
        </mxCell>
        <mxCell id="_UMkpMhVSqITo2PRBiwc-41" value="&lt;font style=&quot;font-size: 20px;&quot;&gt;$$V_\text{in}(f)$$&lt;/font&gt;" style="text;html=1;align=center;verticalAlign=middle;whiteSpace=wrap;rounded=0;" vertex="1" parent="1">
          <mxGeometry x="1029" y="330" width="60" height="30" as="geometry" />
        </mxCell>
        <mxCell id="_UMkpMhVSqITo2PRBiwc-42" value="&lt;font style=&quot;font-size: 20px;&quot;&gt;$$G_\text{dist}(\Delta f-f )$$&lt;/font&gt;" style="text;html=1;align=center;verticalAlign=middle;whiteSpace=wrap;rounded=0;" vertex="1" parent="1">
          <mxGeometry x="1049" y="570" width="60" height="30" as="geometry" />
        </mxCell>
        <mxCell id="_UMkpMhVSqITo2PRBiwc-47" value="&lt;font style=&quot;font-size: 18px; color: rgb(0, 153, 0);&quot;&gt;&lt;b&gt;$$\int ^{f_O} V_\text{in}( f)\times G_\text{dist}(f_O-f)df$$&lt;/b&gt;&lt;/font&gt;" style="text;html=1;align=center;verticalAlign=middle;whiteSpace=wrap;rounded=0;" vertex="1" parent="1">
          <mxGeometry x="1020" y="840" width="60" height="30" as="geometry" />
        </mxCell>
        <mxCell id="_UMkpMhVSqITo2PRBiwc-51" value="" style="endArrow=block;html=1;rounded=0;strokeWidth=4;endFill=1;" edge="1" parent="1">
          <mxGeometry width="50" height="50" relative="1" as="geometry">
            <mxPoint x="280" y="1080" as="sourcePoint" />
            <mxPoint x="1080" y="1080" as="targetPoint" />
          </mxGeometry>
        </mxCell>
        <mxCell id="_UMkpMhVSqITo2PRBiwc-52" value="" style="endArrow=block;html=1;rounded=0;strokeWidth=4;endFill=1;" edge="1" parent="1">
          <mxGeometry width="50" height="50" relative="1" as="geometry">
            <mxPoint x="680" y="1080" as="sourcePoint" />
            <mxPoint x="680" y="920" as="targetPoint" />
          </mxGeometry>
        </mxCell>
        <mxCell id="_UMkpMhVSqITo2PRBiwc-60" value="" style="endArrow=blockThin;html=1;rounded=0;endFill=1;strokeWidth=4;fillColor=#d5e8d4;strokeColor=#009900;" edge="1" parent="1">
          <mxGeometry width="50" height="50" relative="1" as="geometry">
            <mxPoint x="599.4099999999999" y="1080" as="sourcePoint" />
            <mxPoint x="599.4099999999999" y="1000" as="targetPoint" />
          </mxGeometry>
        </mxCell>
        <mxCell id="_UMkpMhVSqITo2PRBiwc-61" value="&lt;font style=&quot;font-size: 20px;&quot;&gt;$$-f_\text{in}$$&lt;/font&gt;" style="text;html=1;align=center;verticalAlign=middle;whiteSpace=wrap;rounded=0;" vertex="1" parent="1">
          <mxGeometry x="560" y="1090" width="60" height="30" as="geometry" />
        </mxCell>
        <mxCell id="_UMkpMhVSqITo2PRBiwc-62" value="&lt;font style=&quot;font-size: 20px;&quot;&gt;$$A^+B^-$$&lt;/font&gt;" style="text;html=1;align=center;verticalAlign=middle;whiteSpace=wrap;rounded=0;strokeColor=none;fontColor=#009900;fontStyle=1" vertex="1" parent="1">
          <mxGeometry x="570" y="970" width="60" height="30" as="geometry" />
        </mxCell>
        <mxCell id="_UMkpMhVSqITo2PRBiwc-63" value="" style="endArrow=blockThin;html=1;rounded=0;endFill=1;strokeWidth=4;fillColor=#d5e8d4;strokeColor=#009900;" edge="1" parent="1">
          <mxGeometry width="50" height="50" relative="1" as="geometry">
            <mxPoint x="439.40999999999985" y="1080" as="sourcePoint" />
            <mxPoint x="439.40999999999985" y="1000" as="targetPoint" />
          </mxGeometry>
        </mxCell>
        <mxCell id="_UMkpMhVSqITo2PRBiwc-64" value="&lt;font style=&quot;font-size: 20px;&quot;&gt;$$-3f_\text{in}$$&lt;/font&gt;" style="text;html=1;align=center;verticalAlign=middle;whiteSpace=wrap;rounded=0;" vertex="1" parent="1">
          <mxGeometry x="400" y="1090" width="60" height="30" as="geometry" />
        </mxCell>
        <mxCell id="_UMkpMhVSqITo2PRBiwc-65" value="&lt;font style=&quot;font-size: 20px;&quot;&gt;$$A^-B^-$$&lt;/font&gt;" style="text;html=1;align=center;verticalAlign=middle;whiteSpace=wrap;rounded=0;strokeColor=none;fontColor=#009900;fontStyle=1" vertex="1" parent="1">
          <mxGeometry x="410" y="970" width="60" height="30" as="geometry" />
        </mxCell>
        <mxCell id="_UMkpMhVSqITo2PRBiwc-66" value="" style="endArrow=blockThin;html=1;rounded=0;endFill=1;strokeWidth=4;fillColor=#d5e8d4;strokeColor=#009900;" edge="1" parent="1">
          <mxGeometry width="50" height="50" relative="1" as="geometry">
            <mxPoint x="918.4099999999999" y="1080" as="sourcePoint" />
            <mxPoint x="918.4099999999999" y="1000" as="targetPoint" />
          </mxGeometry>
        </mxCell>
        <mxCell id="_UMkpMhVSqITo2PRBiwc-67" value="&lt;font style=&quot;font-size: 20px;&quot;&gt;$$A^+B^+$$&lt;/font&gt;" style="text;html=1;align=center;verticalAlign=middle;whiteSpace=wrap;rounded=0;strokeColor=none;fontColor=#009900;fontStyle=1" vertex="1" parent="1">
          <mxGeometry x="889" y="970" width="60" height="30" as="geometry" />
        </mxCell>
        <mxCell id="_UMkpMhVSqITo2PRBiwc-68" value="" style="endArrow=blockThin;html=1;rounded=0;endFill=1;strokeWidth=4;fillColor=#d5e8d4;strokeColor=#009900;" edge="1" parent="1">
          <mxGeometry width="50" height="50" relative="1" as="geometry">
            <mxPoint x="758.4099999999999" y="1080" as="sourcePoint" />
            <mxPoint x="758.4099999999999" y="1000" as="targetPoint" />
          </mxGeometry>
        </mxCell>
        <mxCell id="_UMkpMhVSqITo2PRBiwc-69" value="&lt;font style=&quot;font-size: 20px;&quot;&gt;$$A^-B^+$$&lt;/font&gt;" style="text;html=1;align=center;verticalAlign=middle;whiteSpace=wrap;rounded=0;strokeColor=none;fontColor=#009900;fontStyle=1" vertex="1" parent="1">
          <mxGeometry x="729" y="970" width="60" height="30" as="geometry" />
        </mxCell>
        <mxCell id="_UMkpMhVSqITo2PRBiwc-71" value="&lt;font style=&quot;font-size: 20px;&quot;&gt;$$f_\text{in}$$&lt;/font&gt;" style="text;html=1;align=center;verticalAlign=middle;whiteSpace=wrap;rounded=0;" vertex="1" parent="1">
          <mxGeometry x="729" y="1090" width="60" height="30" as="geometry" />
        </mxCell>
        <mxCell id="_UMkpMhVSqITo2PRBiwc-72" value="&lt;font style=&quot;font-size: 20px;&quot;&gt;$$3f_\text{in}$$&lt;/font&gt;" style="text;html=1;align=center;verticalAlign=middle;whiteSpace=wrap;rounded=0;" vertex="1" parent="1">
          <mxGeometry x="879" y="1090" width="60" height="30" as="geometry" />
        </mxCell>
        <mxCell id="_UMkpMhVSqITo2PRBiwc-73" value="" style="endArrow=block;html=1;rounded=0;strokeWidth=7;endFill=1;fillColor=#d80073;strokeColor=#FF0000;" edge="1" parent="1">
          <mxGeometry width="50" height="50" relative="1" as="geometry">
            <mxPoint x="1040" y="760" as="sourcePoint" />
            <mxPoint x="850" y="880" as="targetPoint" />
          </mxGeometry>
        </mxCell>
      </root>
    </mxGraphModel>
  </diagram>
</mxfile>
